<svg width="900" height="500" viewBox="0 0 900 500" fill="none" xmlns="http://www.w3.org/2000/svg">
<path d="M282 100C293.046 100 302 108.954 302 120V380C302 391.046 293.046 400 282 400H252C252 372.386 229.614 350 202 350C174.386 350 152 372.386 152 400H122C110.954 400 102 391.046 102 380V120C102 108.954 110.954 100 122 100H282Z" fill="#F31260"/>
<path d="M252 225C252 198.436 231.176 176.653 204.994 175.1C204.454 175.041 203.915 175 203.363 175C203.201 175 203.039 175.016 202.876 175.022C202.586 175.016 202.296 175 202 175C174.43 175 152 197.43 152 225C152 252.57 174.43 275 202 275C202.293 275 202.586 274.981 202.876 274.975C203.039 274.981 203.201 275 203.363 275C203.912 275 204.451 274.963 204.994 274.9C231.176 273.347 252 251.564 252 225ZM242.697 241.096C240.978 240.596 236.662 239.512 229.046 238.615C229.676 234.299 230.022 229.74 230.022 225C230.022 221.263 229.807 217.644 229.408 214.16C239.057 213.004 243.286 211.551 243.567 211.451L242.407 208.17C244.574 213.354 245.775 219.038 245.775 225C245.775 230.681 244.677 236.109 242.697 241.096ZM179.922 225C179.922 221.503 180.153 218.088 180.577 214.804C185.633 215.201 191.683 215.497 198.788 215.563V237.246C191.867 237.312 185.957 237.593 180.983 237.977C180.297 233.856 179.922 229.497 179.922 225ZM205.016 181.665C212.663 183.887 219.212 194.524 222.144 208.626C217.429 209.001 211.752 209.279 205.016 209.342V181.665ZM198.791 181.74V209.338C192.129 209.273 186.425 208.998 181.631 208.632C184.625 194.705 191.225 184.146 198.791 181.74ZM198.791 243.477V268.254C191.733 266.01 185.517 256.676 182.283 244.133C186.936 243.789 192.432 243.543 198.791 243.477ZM205.016 268.335V243.477C211.444 243.539 216.911 243.796 221.508 244.155C218.33 256.864 212.152 266.266 205.016 268.335ZM205.016 237.249V215.566C212.161 215.501 218.171 215.197 223.161 214.785C223.569 218.075 223.794 221.494 223.794 224.997C223.794 229.503 223.432 233.871 222.768 237.996C217.856 237.596 211.971 237.315 205.016 237.249ZM241.259 205.657C240.317 205.951 236.381 207.073 228.491 208.004C226.732 198.636 223.551 190.627 219.415 184.843C228.921 188.984 236.678 196.396 241.262 205.657H241.259ZM187.07 183.849C181.981 189.702 177.83 198.124 175.559 208.079C168.495 207.314 164.26 206.411 162.566 206.001C167.51 195.783 176.311 187.765 187.067 183.853L187.07 183.849ZM160.252 211.835C161.453 212.16 165.994 213.294 174.439 214.229C173.956 217.688 173.691 221.291 173.691 225C173.691 229.715 174.115 234.249 174.885 238.543C167.634 239.327 163.175 240.268 161.175 240.749C159.282 235.856 158.231 230.55 158.231 224.997C158.231 220.413 158.942 215.988 160.255 211.832L160.252 211.835ZM163.901 246.517C166.169 246.036 170.229 245.299 176.239 244.671C178.606 253.429 182.455 260.842 187.07 266.151C177.215 262.563 169.013 255.529 163.901 246.517ZM219.412 265.151C223.139 259.948 226.086 252.942 227.92 244.761C234.101 245.471 237.981 246.305 239.937 246.799C235.258 254.911 228.06 261.388 219.412 265.151Z" fill="white"/>
<path d="M381.403 220.538V204.818H455.469V220.538H427.859V295H409.013V220.538H381.403ZM467.314 295V227.364H486.072V295H467.314ZM476.737 218.645C473.948 218.645 471.556 217.72 469.56 215.871C467.593 213.992 466.609 211.746 466.609 209.134C466.609 206.55 467.593 204.334 469.56 202.484C471.556 200.606 473.948 199.666 476.737 199.666C479.526 199.666 481.904 200.606 483.871 202.484C485.867 204.334 486.865 206.55 486.865 209.134C486.865 211.746 485.867 213.992 483.871 215.871C481.904 217.72 479.526 218.645 476.737 218.645ZM518.096 275.537L518.14 253.036H520.87L542.535 227.364H564.068L534.961 261.358H530.514L518.096 275.537ZM501.099 295V204.818H519.858V295H501.099ZM543.372 295L523.468 265.541L535.974 252.287L565.345 295H543.372ZM601.31 296.321C594.352 296.321 588.364 294.912 583.344 292.094C578.353 289.246 574.508 285.224 571.807 280.028C569.106 274.803 567.756 268.624 567.756 261.49C567.756 254.533 569.106 248.427 571.807 243.172C574.508 237.917 578.309 233.822 583.212 230.886C588.143 227.951 593.927 226.483 600.561 226.483C605.023 226.483 609.177 227.202 613.023 228.641C616.898 230.05 620.274 232.178 623.151 235.026C626.057 237.873 628.317 241.455 629.932 245.77C631.546 250.056 632.354 255.076 632.354 260.83V265.982H575.241V254.357H614.696C614.696 251.656 614.109 249.263 612.935 247.179C611.76 245.095 610.131 243.465 608.047 242.291C605.992 241.088 603.599 240.486 600.869 240.486C598.022 240.486 595.497 241.146 593.295 242.467C591.123 243.759 589.42 245.506 588.188 247.707C586.955 249.88 586.323 252.302 586.294 254.973V266.026C586.294 269.372 586.911 272.264 588.143 274.7C589.406 277.137 591.182 279.016 593.472 280.337C595.761 281.658 598.477 282.318 601.618 282.318C603.702 282.318 605.61 282.025 607.342 281.438C609.074 280.85 610.557 279.97 611.79 278.795C613.023 277.621 613.962 276.183 614.608 274.48L631.957 275.625C631.077 279.794 629.271 283.434 626.541 286.545C623.84 289.628 620.347 292.035 616.061 293.767C611.804 295.47 606.887 296.321 601.31 296.321ZM680.571 227.364V241.455H639.839V227.364H680.571ZM649.087 211.159H667.845V274.216C667.845 275.948 668.109 277.298 668.638 278.267C669.166 279.206 669.9 279.867 670.839 280.249C671.808 280.63 672.924 280.821 674.186 280.821C675.067 280.821 675.947 280.748 676.828 280.601C677.709 280.425 678.384 280.293 678.854 280.205L681.804 294.163C680.865 294.457 679.544 294.795 677.841 295.176C676.138 295.587 674.069 295.837 671.632 295.925C667.111 296.101 663.148 295.499 659.743 294.119C656.367 292.74 653.74 290.597 651.861 287.69C649.982 284.784 649.057 281.115 649.087 276.682V211.159ZM713.663 204.818V295H694.596V204.818H713.663ZM747.756 255.898V295H728.998V227.364H746.875V239.297H747.668C749.165 235.363 751.675 232.251 755.198 229.962C758.721 227.643 762.992 226.483 768.012 226.483C772.709 226.483 776.804 227.51 780.297 229.565C783.791 231.62 786.506 234.556 788.444 238.372C790.381 242.159 791.35 246.68 791.35 251.935V295H772.591V255.281C772.621 251.142 771.564 247.913 769.421 245.594C767.278 243.245 764.328 242.071 760.57 242.071C758.045 242.071 755.814 242.614 753.877 243.7C751.969 244.786 750.471 246.372 749.385 248.456C748.328 250.511 747.785 252.991 747.756 255.898Z" fill="#F31260"/>
</svg>
